<?xml version="1.0" encoding="UTF-8" standalone="no"?>
<!-- Created with Inkscape (http://www.inkscape.org/) -->

<svg
   width="100mm"
   height="100mm"
   viewBox="0 0 100 100"
   version="1.1"
   id="svg163"
   inkscape:version="1.2.2 (b0a8486541, 2022-12-01)"
   sodipodi:docname="riscv alliance turkiye no font.svg"
   inkscape:export-filename="riscv alliance turkiye no font.png"
   inkscape:export-xdpi="254"
   inkscape:export-ydpi="254"
   xmlns:inkscape="http://www.inkscape.org/namespaces/inkscape"
   xmlns:sodipodi="http://sodipodi.sourceforge.net/DTD/sodipodi-0.dtd"
   xmlns="http://www.w3.org/2000/svg"
   xmlns:svg="http://www.w3.org/2000/svg">
  <sodipodi:namedview
     id="namedview165"
     pagecolor="#ffffff"
     bordercolor="#000000"
     borderopacity="0.25"
     inkscape:showpageshadow="2"
     inkscape:pageopacity="0.0"
     inkscape:pagecheckerboard="0"
     inkscape:deskcolor="#d1d1d1"
     inkscape:document-units="mm"
     showgrid="false"
     inkscape:zoom="1.4646538"
     inkscape:cx="164.20263"
     inkscape:cy="283.68479"
     inkscape:window-width="1920"
     inkscape:window-height="1110"
     inkscape:window-x="0"
     inkscape:window-y="28"
     inkscape:window-maximized="1"
     inkscape:current-layer="layer1" />
  <defs
     id="defs160">
    <rect
       x="5.824667"
       y="391.36738"
       width="515.39754"
       height="193.11139"
       id="rect589" />
  </defs>
  <g
     inkscape:label="Layer 1"
     inkscape:groupmode="layer"
     id="layer1">
    <rect
       style="fill:#ffffff;stroke-width:7.16559;stroke-linecap:round;stroke-linejoin:round"
       id="rect533"
       width="100"
       height="100"
       x="-5.1070259e-15"
       y="-1.5543122e-15" />
    <g
       id="g3005"
       transform="matrix(1.0573105,0,0,1.0573105,-2.8655239,-4.4128075)">
      <g
         id="g8"
         transform="matrix(0.06005701,0,0,0.06005701,19.986509,17.223778)">
        <path
           class="st0"
           d="m 532,188.2 c 0,83.2 -50.4,158.9 -148.8,171.9 L 522,524 534.6,511 787.7,156.8 V 9.1 H 378.2 v 0 C 481.6,19.2 532,105 532,188.2 Z"
           id="path4"
           style="fill:#e6ac2c" />
        <path
           class="st1"
           d="m 602.7,556.3 185,-258.5 v 279 h -201 z M 247.1,289 h 95.8 c 70.6,0 105.9,-50.4 105.9,-100.9 0,-50.5 -35.3,-98.3 -105.9,-98.3 H 216.8 v 0 h -5 V 576.9 H 456.4 L 247.1,329.4 Z"
           id="path6"
           style="fill:#2c356d" />
      </g>
      <g
         aria-label="RISC-V
ALLIANCE
TURKIYE"
         transform="matrix(0.54278639,0,0,0.54278639,-93.095252,-155.24048)"
         id="text587"
         style="font-weight:bold;font-size:19.5334px;line-height:0.9;font-family:'Open Sans';-inkscape-font-specification:'Open Sans Bold';text-align:center;white-space:pre;shape-inside:url(#rect589);display:inline;stroke-width:12.0076;stroke-linecap:round;stroke-linejoin:round">
        <path
           d="m 221.89775,401.36829 0.0586,0.0195 -0.0781,-0.0391 z m 11.75911,-3.78948 q 0,1.30874 -0.91807,2.22681 -0.91807,0.91807 -2.22681,0.91807 h -5.13728 q -0.0781,0 -0.0977,0.0781 -0.0195,0.0781 0.0391,0.1172 l 7.59849,4.70755 q 0.13674,0.0781 0.0781,0.2344 -0.0391,0.15627 -0.19534,0.15627 h -3.04721 q -0.3516,0 -0.66413,-0.19534 l -7.1883,-4.45361 q -0.7618,-0.48834 -0.7618,-1.32827 0,-0.60554 0.42974,-1.03527 0.44927,-0.44927 1.07433,-0.44927 h 7.87196 q 0.41021,0 0.68367,-0.27347 0.293,-0.293 0.293,-0.7032 v -1.30874 q 0,-0.39067 -0.293,-0.66414 -0.27346,-0.293 -0.68367,-0.293 h -9.49323 q -0.39067,0 -0.68367,0.293 -0.293,0.27347 -0.293,0.66414 v 9.4151 q 0,0.50787 -0.50787,0.50787 h -1.15247 q -0.50787,0 -0.50787,-0.50787 v -9.4151 q 0,-1.2892 0.91807,-2.20727 0.91807,-0.93761 2.22681,-0.93761 h 9.49323 q 1.30874,0 2.22681,0.93761 0.91807,0.91807 0.91807,2.20727 z"
           style="font-family:popstarregular;-inkscape-font-specification:'popstarregular Bold';fill:#2c356d"
           id="path42996" />
        <path
           d="m 238.18862,405.7047 q 0,0.50787 -0.5274,0.50787 h -1.13294 q -0.5274,0 -0.5274,-0.50787 v -12.0521 q 0,-0.52741 0.5274,-0.52741 h 1.13294 q 0.5274,0 0.5274,0.52741 z"
           style="font-family:popstarregular;-inkscape-font-specification:'popstarregular Bold';fill:#2c356d"
           id="path42998" />
        <path
           d="m 256.37423,403.04816 q 0,1.30874 -0.91807,2.22681 -0.91807,0.91807 -2.22681,0.91807 h -12.13024 q -0.50787,0 -0.50787,-0.50787 v -1.15247 q 0,-0.50787 0.50787,-0.50787 h 12.13024 q 0.39067,0 0.68367,-0.27347 0.293,-0.293 0.293,-0.7032 v -1.3478 q 0,-0.41021 -0.293,-0.68367 -0.293,-0.293 -0.68367,-0.293 h -9.49323 q -1.30874,0 -2.22681,-0.91807 -0.91807,-0.91807 -0.91807,-2.22681 v -1.30874 q 0,-1.2892 0.91807,-2.20727 0.91807,-0.93761 2.22681,-0.93761 h 12.13024 q 0.50787,0 0.50787,0.52741 v 1.13293 q 0,0.5274 -0.50787,0.5274 h -12.13024 q -0.39067,0 -0.68367,0.293 -0.293,0.27347 -0.293,0.66414 v 1.30874 q 0,0.4102 0.293,0.7032 0.293,0.27347 0.68367,0.27347 h 9.49323 q 1.30874,0 2.22681,0.91807 0.91807,0.91807 0.91807,2.22681 z"
           style="font-family:popstarregular;-inkscape-font-specification:'popstarregular Bold';fill:#2c356d"
           id="path43000" />
        <path
           d="m 274.36448,405.68517 q 0,0.50787 -0.50787,0.50787 h -12.13024 q -1.30874,0 -2.22681,-0.91807 -0.91807,-0.91807 -0.91807,-2.22681 v -6.77809 q 0,-1.2892 0.91807,-2.20727 0.91807,-0.93761 2.22681,-0.93761 h 12.13024 q 0.50787,0 0.50787,0.52741 v 1.13293 q 0,0.5274 -0.50787,0.5274 h -12.13024 q -0.39067,0 -0.68367,0.293 -0.293,0.27347 -0.293,0.66414 v 6.77809 q 0,0.4102 0.293,0.7032 0.293,0.27347 0.68367,0.27347 h 12.13024 q 0.50787,0 0.50787,0.50787 z"
           style="font-family:popstarregular;-inkscape-font-specification:'popstarregular Bold';fill:#2c356d"
           id="path43002" />
        <path
           d="m 291.88596,400.23535 q 0,0.50787 -0.52741,0.50787 h -14.20078 q -0.50787,0 -0.50787,-0.50787 v -1.15247 q 0,-0.50787 0.50787,-0.50787 h 14.20078 q 0.52741,0 0.52741,0.50787 z"
           style="font-family:popstarregular;-inkscape-font-specification:'popstarregular Bold';fill:#e6ac2c"
           id="path43004" />
        <path
           d="m 309.759,397.55927 q 0,2.53935 -1.83614,4.25829 l -3.80901,3.57461 q -0.93761,0.89853 -2.24634,0.89853 -1.30874,0 -2.24634,-0.89853 l -3.80902,-3.57461 q -1.83614,-1.71894 -1.83614,-4.25829 v -3.90667 q 0,-0.52741 0.50787,-0.52741 h 1.15247 q 0.50787,0 0.50787,0.52741 v 3.90667 q 0,1.58221 1.172,2.67608 l 3.78948,3.57461 q 0.33207,0.293 0.76181,0.293 0.42973,0 0.7618,-0.293 l 3.80901,-3.57461 q 1.15247,-1.09387 1.15247,-2.67608 v -3.90667 q 0,-0.52741 0.50787,-0.52741 h 1.15247 q 0.50787,0 0.50787,0.52741 z"
           style="font-family:popstarregular;-inkscape-font-specification:'popstarregular Bold';fill:#e6ac2c"
           id="path43006" />
        <path
           d="m 217.22929,424.02608 q 0,0.50787 -0.5274,0.50787 h -1.15247 q -0.50787,0 -0.50787,-0.50787 v -4.68801 q 0,-0.27347 -0.25394,-0.27347 h -10.91917 q -0.25393,0 -0.25393,0.27347 v 4.68801 q 0,0.50787 -0.50787,0.50787 h -1.15247 q -0.50787,0 -0.50787,-0.50787 v -9.4151 q 0,-1.2892 0.91807,-2.20727 0.91807,-0.9376 2.22681,-0.9376 h 9.49323 q 1.28921,0 2.20728,0.9376 0.9376,0.91807 0.9376,2.20727 z m -2.18774,-7.38362 v -2.03148 q 0,-0.39067 -0.293,-0.66413 -0.27347,-0.293 -0.66414,-0.293 h -9.49323 q -0.4102,0 -0.7032,0.293 -0.27347,0.27346 -0.27347,0.66413 v 2.03148 q 0,0.25393 0.25393,0.25393 h 10.91917 q 0.25394,0 0.25394,-0.25393 z"
           style="font-family:popstarregular;-inkscape-font-specification:'popstarregular Bold';fill:#2c356d"
           id="path43008" />
        <path
           d="m 233.83267,424.02608 q 0,0.50787 -0.50787,0.50787 h -10.31364 q -1.30874,0 -2.22681,-0.91807 -0.91807,-0.91807 -0.91807,-2.22681 v -9.39556 q 0,-0.5274 0.50787,-0.5274 h 1.15247 q 0.50787,0 0.50787,0.5274 v 9.39556 q 0,0.4102 0.293,0.7032 0.293,0.27347 0.68367,0.27347 h 10.31364 q 0.50787,0 0.50787,0.50787 z"
           style="font-family:popstarregular;-inkscape-font-specification:'popstarregular Bold';fill:#2c356d"
           id="path43010" />
        <path
           d="m 249.51798,424.02608 q 0,0.50787 -0.50787,0.50787 h -10.31364 q -1.30873,0 -2.2268,-0.91807 -0.91807,-0.91807 -0.91807,-2.22681 v -9.39556 q 0,-0.5274 0.50787,-0.5274 h 1.15247 q 0.50786,0 0.50786,0.5274 v 9.39556 q 0,0.4102 0.29301,0.7032 0.293,0.27347 0.68366,0.27347 h 10.31364 q 0.50787,0 0.50787,0.50787 z"
           style="font-family:popstarregular;-inkscape-font-specification:'popstarregular Bold';fill:#2c356d"
           id="path43012" />
        <path
           d="m 253.52232,424.04561 q 0,0.50787 -0.52741,0.50787 h -1.13293 q -0.52741,0 -0.52741,-0.50787 v -12.0521 q 0,-0.5274 0.52741,-0.5274 h 1.13293 q 0.52741,0 0.52741,0.5274 z"
           style="font-family:popstarregular;-inkscape-font-specification:'popstarregular Bold';fill:#2c356d"
           id="path43014" />
        <path
           d="m 272.05953,424.02608 q 0,0.50787 -0.52741,0.50787 h -1.15247 q -0.50786,0 -0.50786,-0.50787 v -4.68801 q 0,-0.27347 -0.25394,-0.27347 h -10.91917 q -0.25393,0 -0.25393,0.27347 v 4.68801 q 0,0.50787 -0.50787,0.50787 h -1.15247 q -0.50787,0 -0.50787,-0.50787 v -9.4151 q 0,-1.2892 0.91807,-2.20727 0.91807,-0.9376 2.22681,-0.9376 h 9.49323 q 1.2892,0 2.20727,0.9376 0.93761,0.91807 0.93761,2.20727 z m -2.18774,-7.38362 v -2.03148 q 0,-0.39067 -0.29301,-0.66413 -0.27346,-0.293 -0.66413,-0.293 h -9.49323 q -0.4102,0 -0.70321,0.293 -0.27346,0.27346 -0.27346,0.66413 v 2.03148 q 0,0.25393 0.25393,0.25393 h 10.91917 q 0.25394,0 0.25394,-0.25393 z"
           style="font-family:popstarregular;-inkscape-font-specification:'popstarregular Bold';fill:#2c356d"
           id="path43016" />
        <path
           d="m 289.67864,422.58061 q 0,1.48454 -1.4064,2.01194 -0.3516,0.13673 -0.74227,0.13673 -0.97667,0 -1.62127,-0.7618 l -8.75097,-10.21597 q -0.0586,-0.0586 -0.1172,-0.0391 -0.0586,0.0391 -0.0586,0.0977 v 10.21597 q 0,0.50787 -0.5274,0.50787 h -1.15247 q -0.50787,0 -0.50787,-0.50787 v -10.60663 q 0,-1.48454 1.38687,-1.99241 0.37114,-0.13674 0.76181,-0.13674 0.97667,0 1.60173,0.74227 l 8.7705,10.23551 q 0.0391,0.0391 0.1172,0.0195 0.0586,-0.0195 0.0586,-0.0977 v -10.19643 q 0,-0.5274 0.5274,-0.5274 h 1.13294 q 0.5274,0 0.5274,0.5274 z"
           style="font-family:popstarregular;-inkscape-font-specification:'popstarregular Bold';fill:#2c356d"
           id="path43018" />
        <path
           d="m 308.00098,424.02608 q 0,0.50787 -0.50787,0.50787 h -12.13024 q -1.30874,0 -2.22681,-0.91807 -0.91807,-0.91807 -0.91807,-2.22681 v -6.77809 q 0,-1.2892 0.91807,-2.20727 0.91807,-0.9376 2.22681,-0.9376 h 12.13024 q 0.50787,0 0.50787,0.5274 v 1.13293 q 0,0.52741 -0.50787,0.52741 h -12.13024 q -0.39067,0 -0.68367,0.293 -0.293,0.27346 -0.293,0.66413 v 6.77809 q 0,0.4102 0.293,0.7032 0.293,0.27347 0.68367,0.27347 h 12.13024 q 0.50787,0 0.50787,0.50787 z"
           style="font-family:popstarregular;-inkscape-font-specification:'popstarregular Bold';fill:#2c356d"
           id="path43020" />
        <path
           d="m 325.81545,424.02608 q 0,0.50787 -0.50786,0.50787 h -12.13025 q -1.30873,0 -2.2268,-0.91807 -0.91807,-0.91807 -0.91807,-2.22681 v -6.77809 q 0,-1.2892 0.91807,-2.20727 0.91807,-0.9376 2.2268,-0.9376 h 12.13025 q 0.50786,0 0.50786,0.5274 v 1.13293 q 0,0.52741 -0.50786,0.52741 h -12.13025 q -0.39066,0 -0.68366,0.293 -0.29301,0.27346 -0.29301,0.66413 v 2.05101 q 0,0.25393 0.27347,0.25393 h 12.42324 q 0.50787,0 0.50787,0.50787 v 1.15247 q 0,0.50787 -0.50787,0.50787 h -12.42324 q -0.27347,0 -0.27347,0.27347 v 2.03147 q 0,0.4102 0.29301,0.7032 0.293,0.27347 0.68366,0.27347 h 12.13025 q 0.50786,0 0.50786,0.50787 z"
           style="font-family:popstarregular;-inkscape-font-specification:'popstarregular Bold';fill:#2c356d"
           id="path43022" />
        <path
           d="m 223.54833,431.46736 q 0,0.5274 -0.50787,0.5274 h -5.58656 q -0.25393,0 -0.25393,0.25393 v 10.1183 q 0,0.50787 -0.50787,0.50787 h -1.15247 q -0.50787,0 -0.50787,-0.50787 v -10.1183 q 0,-0.25393 -0.27346,-0.25393 h -6.48509 q -0.50787,0 -0.50787,-0.5274 v -1.13294 q 0,-0.5274 0.50787,-0.5274 h 14.76725 q 0.50787,0 0.50787,0.5274 z"
           style="font-family:popstarregular;-inkscape-font-specification:'popstarregular Bold';fill:#e62c2c"
           id="path43024" />
        <path
           d="m 247.94554,438.05011 0.0586,0.0195 -0.0781,-0.0391 z m 11.75911,-3.78948 q 0,1.30874 -0.91807,2.22681 -0.91807,0.91807 -2.22681,0.91807 h -5.13728 q -0.0781,0 -0.0977,0.0781 -0.0195,0.0781 0.0391,0.1172 l 7.59849,4.70755 q 0.13674,0.0781 0.0781,0.2344 -0.0391,0.15627 -0.19534,0.15627 h -3.04721 q -0.3516,0 -0.66413,-0.19533 l -7.1883,-4.45362 q -0.7618,-0.48833 -0.7618,-1.32827 0,-0.60553 0.42974,-1.03527 0.44926,-0.44927 1.07433,-0.44927 h 7.87196 q 0.4102,0 0.68367,-0.27347 0.293,-0.293 0.293,-0.7032 v -1.30874 q 0,-0.39066 -0.293,-0.66413 -0.27347,-0.293 -0.68367,-0.293 h -9.49323 q -0.39067,0 -0.68367,0.293 -0.293,0.27347 -0.293,0.66413 v 9.4151 q 0,0.50787 -0.50787,0.50787 h -1.15247 q -0.50787,0 -0.50787,-0.50787 v -9.4151 q 0,-1.2892 0.91807,-2.20727 0.91807,-0.9376 2.22681,-0.9376 h 9.49323 q 1.30874,0 2.22681,0.9376 0.91807,0.91807 0.91807,2.20727 z"
           style="font-family:popstarregular;-inkscape-font-specification:'popstarregular Bold';fill:#e62c2c"
           id="path43028" />
        <path
           d="m 277.03078,430.74462 -9.92296,5.33262 q -0.15627,0.0781 -0.15627,0.25393 0,0.1758 0.15627,0.25394 l 9.7667,5.33261 q 0.21486,0.11721 0.21486,0.35161 0,0.42973 -0.4102,0.42973 h -2.28541 q -0.6446,0 -1.2306,-0.31253 l -7.52036,-4.12155 q -1.15247,-0.62507 -1.15247,-1.93381 0,-1.32827 1.15247,-1.95334 l 7.65709,-4.10201 q 0.56647,-0.293 1.21107,-0.293 h 2.32448 q 0.4102,0 0.4102,0.4102 0,0.2344 -0.21487,0.3516 z m -12.91157,11.62237 q 0,0.50787 -0.50787,0.50787 h -1.15247 q -0.50787,0 -0.50787,-0.50787 v -12.03257 q 0,-0.5274 0.50787,-0.5274 h 1.15247 q 0.50787,0 0.50787,0.5274 z"
           style="font-family:popstarregular;-inkscape-font-specification:'popstarregular Bold';fill:#e62c2c"
           id="path43030" />
        <path
           d="m 301.25222,430.25629 -7.81336,6.42648 q -0.19534,0.15627 -0.19534,0.41021 v 5.27401 q 0,0.50787 -0.5274,0.50787 h -1.13294 q -0.5274,0 -0.5274,-0.50787 v -5.27401 q 0,-0.25394 -0.19533,-0.41021 l -7.81336,-6.44602 q -0.0977,-0.0781 -0.0977,-0.19533 0,-0.25394 0.25394,-0.25394 h 2.26587 q 0.44927,0 0.80087,0.293 l 5.68422,4.66849 q 0.19533,0.1758 0.39067,0 l 5.68422,-4.66849 q 0.3516,-0.293 0.80087,-0.293 h 2.26587 q 0.25393,0 0.25393,0.27347 0,0.1172 -0.0977,0.19534 z"
           style="font-family:popstarregular;-inkscape-font-specification:'popstarregular Bold';fill:#e62c2c"
           id="path43034" />
        <path
           d="m 318.69555,442.36699 q 0,0.50787 -0.50787,0.50787 h -12.13024 q -1.30874,0 -2.22681,-0.91807 -0.91807,-0.91807 -0.91807,-2.22681 v -6.77809 q 0,-1.2892 0.91807,-2.20727 0.91807,-0.9376 2.22681,-0.9376 h 12.13024 q 0.50787,0 0.50787,0.5274 v 1.13294 q 0,0.5274 -0.50787,0.5274 h -12.13024 q -0.39067,0 -0.68367,0.293 -0.293,0.27347 -0.293,0.66413 v 2.05101 q 0,0.25394 0.27346,0.25394 h 12.42325 q 0.50786,0 0.50786,0.50786 v 1.15247 q 0,0.50787 -0.50786,0.50787 h -12.42325 q -0.27346,0 -0.27346,0.27347 v 2.03147 q 0,0.41021 0.293,0.70321 0.293,0.27346 0.68367,0.27346 h 12.13024 q 0.50787,0 0.50787,0.50787 z"
           style="font-family:popstarregular;-inkscape-font-specification:'popstarregular Bold';fill:#e62c2c"
           id="path43036" />
      </g>
      <path
         id="path43032-6-1"
         style="font-weight:bold;font-size:19.5334px;line-height:0.9;font-family:popstarregular;-inkscape-font-specification:'popstarregular Bold';text-align:center;white-space:pre;shape-inside:url(#rect589);display:inline;fill:#e62c2c;stroke-width:6.51756;stroke-linecap:round;stroke-linejoin:round"
         d="m 58.63053,76.578788 c -0.190844,0 -0.286288,0.09544 -0.286288,0.286288 v 0.589111 c 0,0.183771 0.09544,0.275435 0.286288,0.275435 h 0.614949 c 0.190844,0 0.286288,-0.09166 0.286288,-0.275435 v -0.589111 c 0,-0.190844 -0.09544,-0.286288 -0.286288,-0.286288 z m -29.057658,0.01085 c -0.179103,0.0058 -0.268718,0.101408 -0.268718,0.286288 v 0.588594 c 0,0.183769 0.09544,0.275952 0.286288,0.275952 h 0.614949 c 0.190845,0 0.286288,-0.09218 0.286288,-0.275952 v -0.588594 c 0,-0.190846 -0.09545,-0.286288 -0.286288,-0.286288 h -0.614949 c -0.006,0 -0.01179,-1.86e-4 -0.01757,0 z m 7.378878,0 c -0.179104,0.0058 -0.268201,0.101408 -0.268201,0.286288 v 0.588594 c 0,0.183769 0.09493,0.275952 0.285771,0.275952 h 0.614949 c 0.190845,0 0.286288,-0.09218 0.286288,-0.275952 v -0.588594 c 0,-0.190846 -0.09544,-0.286288 -0.286288,-0.286288 H 36.96932 c -0.006,0 -0.01179,-1.86e-4 -0.01757,0 z m -7.37216,1.792656 c -0.183777,0 -0.275436,0.09544 -0.275436,0.286287 v 3.306775 c 0,0.473575 0.165949,0.8765 0.498161,1.208712 0.332212,0.332212 0.735137,0.498677 1.208712,0.498677 h 5.152657 c 0.466508,0 0.866164,-0.166465 1.198377,-0.498677 0.339279,-0.332212 0.508496,-0.735137 0.508496,-1.208712 v -3.306775 c 0,-0.190843 -0.09166,-0.286287 -0.275436,-0.286287 H 36.96932 c -0.190844,0 -0.285771,0.09544 -0.285771,0.286287 v 3.306775 c 0,0.148436 -0.05314,0.275867 -0.159163,0.381889 -0.09896,0.09893 -0.219339,0.148311 -0.360702,0.148311 h -5.152657 c -0.148436,0 -0.275866,-0.04936 -0.381889,-0.148311 -0.09893,-0.106022 -0.148311,-0.233453 -0.148311,-0.381889 v -3.306775 c 0,-0.190843 -0.09167,-0.286287 -0.275436,-0.286287 z m 29.05094,0.0057 c -0.190844,0 -0.286288,0.09544 -0.286288,0.286288 v 4.743379 c 0,0.183771 0.09544,0.275436 0.286288,0.275436 h 0.614949 c 0.190844,0 0.286288,-0.09167 0.286288,-0.275436 v -4.743379 c 0,-0.190844 -0.09544,-0.286288 -0.286288,-0.286288 z"
         transform="translate(0,1.4634332)" />
    </g>
  </g>
</svg>
